# xmcd
#
# Track frame offsets:
#	150
#	21045
#	40850
#	59727
#	84204
#	105565
#	118257
#	131715
#	146100
#	169807
#	184832
#	198047
#	211477
#	226492
#	239787
#	249505
#	262650
#	278585
#	291975
#	305975
#
# Disc length: 4416 seconds
#
# Revision: 1
# Processed by: cddbd v1.5.2PL0 Copyright (c) Steve Scherf et al.
# Submitted via: EasyCDDAExtractor 2010.6.0.0
#
DISCID=2f113e14
DTITLE=Various Artist - Fantasy Trip vol.1 mixed by Anj Fantasy
DYEAR=2000
DGENRE=dance
TTITLE0=Unreal project - Overture
TTITLE1=Hobemon - Hark
TTITLE2=Mickey Finn - Stew bew
TTITLE3=Hey off - Mantar state
TTITLE4=Dr. Freckle - Loducrious
TTITLE5=Interment - Risio
TTITLE6=Trancenation - Technological
TTITLE7=Endoria - Azmuth trip
TTITLE8=Cream - World of god
TTITLE9=A N' J Fantasy - Help me
TTITLE10=OKL - Activator
TTITLE11=Mickey Finn - Lovin' maggots
TTITLE12=Silverstream - Thundervision
TTITLE13=Ivan - Ukarina
TTITLE14=Kusak - My herd feels heavy
TTITLE15=A N' J Fantasy - Fantasy
TTITLE16=Stigh Strandh - Where it takes me
TTITLE17=Dr. Freckle - Golden triangle
TTITLE18=Mickey Finn - Hazzazzr
TTITLE19=Dreamweaver - Stargazer secrets
EXTD=
EXTT0=
EXTT1=
EXTT2=
EXTT3=
EXTT4=
EXTT5=
EXTT6=
EXTT7=
EXTT8=
EXTT9=
EXTT10=
EXTT11=
EXTT12=
EXTT13=
EXTT14=
EXTT15=
EXTT16=
EXTT17=
EXTT18=
EXTT19=
PLAYORDER=
